<svg width="512" height="512" viewBox="0 0 512 512" xmlns="http://www.w3.org/2000/svg">
  <defs>
    <linearGradient id="primaryGradient" x1="0%" y1="0%" x2="100%" y2="100%">
      <stop offset="0%" style="stop-color:#2563eb;stop-opacity:1" />
      <stop offset="100%" style="stop-color:#1d4ed8;stop-opacity:1" />
    </linearGradient>
    <linearGradient id="secondaryGradient" x1="0%" y1="0%" x2="100%" y2="100%">
      <stop offset="0%" style="stop-color:#3b82f6;stop-opacity:1" />
      <stop offset="100%" style="stop-color:#1e40af;stop-opacity:1" />
    </linearGradient>
    <linearGradient id="accentGradient" x1="0%" y1="0%" x2="100%" y2="100%">
      <stop offset="0%" style="stop-color:#60a5fa;stop-opacity:1" />
      <stop offset="100%" style="stop-color:#3b82f6;stop-opacity:1" />
    </linearGradient>
  </defs>
  
  <!-- Background circle -->
  <circle cx="256" cy="256" r="240" fill="url(#primaryGradient)" stroke="#1e40af" stroke-width="4"/>
  
  <!-- Inner circle for depth -->
  <circle cx="256" cy="256" r="200" fill="url(#secondaryGradient)" opacity="0.9"/>
  
  <!-- Ascending staircase/levels representing engineering progression -->
  <g transform="translate(156, 156)">
    <!-- Level 1 - Foundation -->
    <rect x="0" y="80" width="200" height="20" fill="url(#accentGradient)" rx="4"/>
    <rect x="10" y="85" width="180" height="10" fill="#ffffff" opacity="0.3" rx="2"/>
    
    <!-- Level 2 - Building -->
    <rect x="20" y="60" width="160" height="20" fill="url(#accentGradient)" rx="4"/>
    <rect x="30" y="65" width="140" height="10" fill="#ffffff" opacity="0.3" rx="2"/>
    
    <!-- Level 3 - Scaling -->
    <rect x="40" y="40" width="120" height="20" fill="url(#accentGradient)" rx="4"/>
    <rect x="50" y="45" width="100" height="10" fill="#ffffff" opacity="0.3" rx="2"/>
    
    <!-- Level 4 - Optimization -->
    <rect x="60" y="20" width="80" height="20" fill="url(#accentGradient)" rx="4"/>
    <rect x="70" y="25" width="60" height="10" fill="#ffffff" opacity="0.3" rx="2"/>
    
    <!-- Level 5 - Mastery -->
    <rect x="80" y="0" width="40" height="20" fill="url(#accentGradient)" rx="4"/>
    <rect x="85" y="5" width="30" height="10" fill="#ffffff" opacity="0.3" rx="2"/>
  </g>
  
  <!-- Circuit/connection lines -->
  <g stroke="#ffffff" stroke-width="2" opacity="0.6" fill="none">
    <!-- Vertical connections -->
    <line x1="256" y1="236" x2="256" y2="216"/>
    <line x1="256" y1="196" x2="256" y2="176"/>
    <line x1="256" y1="156" x2="256" y2="136"/>
    <line x1="256" y1="116" x2="256" y2="96"/>
    
    <!-- Horizontal connections -->
    <line x1="236" y1="256" x2="216" y2="256"/>
    <line x1="196" y1="256" x2="176" y2="256"/>
    <line x1="156" y1="256" x2="136" y2="256"/>
    <line x1="116" y1="256" x2="96" y2="256"/>
  </g>
  
  <!-- Central node representing core engineering -->
  <circle cx="256" cy="256" r="8" fill="#ffffff"/>
  <circle cx="256" cy="256" r="4" fill="url(#primaryGradient)"/>
  
  <!-- Small accent nodes -->
  <circle cx="256" cy="226" r="3" fill="#ffffff" opacity="0.8"/>
  <circle cx="256" cy="186" r="3" fill="#ffffff" opacity="0.8"/>
  <circle cx="256" cy="146" r="3" fill="#ffffff" opacity="0.8"/>
  <circle cx="256" cy="106" r="3" fill="#ffffff" opacity="0.8"/>
  
  <circle cx="226" cy="256" r="3" fill="#ffffff" opacity="0.8"/>
  <circle cx="186" cy="256" r="3" fill="#ffffff" opacity="0.8"/>
  <circle cx="146" cy="256" r="3" fill="#ffffff" opacity="0.8"/>
  <circle cx="106" cy="256" r="3" fill="#ffffff" opacity="0.8"/>
  
  <!-- Ascending arrow indicator -->
  <g transform="translate(256, 320)">
    <path d="M-15,0 L0,-20 L15,0 M-8,-12 L0,-20 L8,-12" 
          stroke="#ffffff" stroke-width="3" fill="none" opacity="0.9"/>
  </g>
  
  <!-- Subtle glow effect -->
  <circle cx="256" cy="256" r="220" fill="none" stroke="#ffffff" stroke-width="1" opacity="0.2"/>
</svg>
